<?xml version="1.0" encoding="iso-8859-1"?>
<!-- Generator: Adobe Illustrator 16.0.0, SVG Export Plug-In . SVG Version: 6.00 Build 0)  -->
<!DOCTYPE svg PUBLIC "-//W3C//DTD SVG 1.1//EN" "http://www.w3.org/Graphics/SVG/1.1/DTD/svg11.dtd">
<svg version="1.1" id="Layer_1" xmlns="http://www.w3.org/2000/svg" xmlns:xlink="http://www.w3.org/1999/xlink" x="0px" y="0px"
	 width="194.75px" height="111.365px" viewBox="28.432 71.063 194.75 111.365"
	 style="enable-background:new 28.432 71.063 194.75 111.365;" xml:space="preserve">
<g style="display:none;">
	<g style="display:inline;">
		<g>
			<path style="fill:#F6F6F6;" d="M37.763,115.011c-0.413,0-0.752,0.332-0.804,0.782l-1.903,17.342l1.903,16.959
				c0.052,0.459,0.391,0.783,0.804,0.783c0.406,0,0.738-0.318,0.804-0.775l2.154-16.967l-2.154-17.342
				C38.501,115.328,38.169,115.011,37.763,115.011z"/>
			<path style="fill:#F6F6F6;" d="M30.623,121.658c-0.406,0-0.723,0.31-0.775,0.752l-1.416,10.725l1.416,10.549
				c0.052,0.443,0.369,0.754,0.775,0.754c0.391,0,0.708-0.311,0.774-0.754l1.667-10.549l-1.667-10.725
				C31.331,121.96,31.014,121.658,30.623,121.658z"/>
			<path style="fill:#F6F6F6;" d="M45.347,111.61c-0.509,0-0.915,0.398-0.967,0.952l-1.8,20.573l1.8,19.83
				c0.052,0.553,0.458,0.951,0.967,0.951c0.501,0,0.907-0.398,0.974-0.945l2.043-19.836l-2.043-20.573
				C46.254,112.009,45.848,111.61,45.347,111.61z"/>
			<path style="fill:#F6F6F6;" d="M52.996,110.887c-0.598,0-1.084,0.473-1.129,1.114l-1.704,21.142l1.704,20.457
				c0.044,0.633,0.531,1.112,1.129,1.112s1.084-0.479,1.136-1.112l1.933-20.457l-1.933-21.148
				C54.081,111.36,53.594,110.887,52.996,110.887z"/>
			<path style="fill:#F6F6F6;" d="M62.003,153.768L62.003,153.768L62.003,153.768z"/>
			<path style="fill:#F6F6F6;" d="M62.003,113.521c-0.044-0.723-0.605-1.269-1.291-1.269c-0.701,0-1.254,0.546-1.298,1.276
				l-1.608,19.615l1.608,20.625c0.044,0.729,0.598,1.275,1.298,1.275c0.686,0,1.247-0.546,1.291-1.275l1.83-20.625L62.003,113.521z"
				/>
			<path style="fill:#F6F6F6;" d="M68.487,99.793c-0.782,0-1.424,0.634-1.461,1.446l-1.512,31.919l1.512,20.617
				c0.037,0.805,0.679,1.445,1.461,1.445c0.767,0,1.409-0.642,1.46-1.453v0.008l1.704-20.617l-1.704-31.919
				C69.896,100.427,69.254,99.793,68.487,99.793z"/>
			<path style="fill:#F6F6F6;" d="M76.203,92.438c-0.878,0-1.593,0.715-1.63,1.615l-1.409,39.208l1.409,20.491
				c0.037,0.899,0.752,1.608,1.63,1.608c0.863,0,1.586-0.709,1.623-1.608v0.009l1.602-20.5l-1.602-39.208
				C77.789,93.154,77.066,92.438,76.203,92.438z"/>
			<path style="fill:#F6F6F6;" d="M84.222,88.897c-0.974,0-1.763,0.782-1.792,1.785l-1.321,42.476l1.321,20.285
				c0.029,0.988,0.819,1.771,1.792,1.771c0.959,0,1.748-0.782,1.785-1.778v0.017l1.481-20.293l-1.481-42.476
				C85.97,89.679,85.181,88.897,84.222,88.897z"/>
			<path style="fill:#F6F6F6;" d="M94.136,89.251c-0.037-1.092-0.894-1.947-1.955-1.947c-1.07,0-1.933,0.855-1.955,1.947
				l-1.224,43.915l1.224,20.152c0.022,1.076,0.885,1.933,1.955,1.933c1.062,0,1.918-0.849,1.955-1.94l1.372-20.145L94.136,89.251z"
				/>
			<polygon style="fill:#F6F6F6;" points="94.136,153.311 94.136,153.311 94.136,153.318 			"/>
			<path style="fill:#F6F6F6;" d="M100.199,88.263c-1.158,0-2.095,0.93-2.117,2.11l-1.122,42.793l1.122,19.969
				c0.022,1.172,0.959,2.102,2.117,2.102c1.158,0,2.088-0.93,2.125-2.116v0.017l1.254-19.97l-1.254-42.793
				C102.287,89.185,101.357,88.263,100.199,88.263z"/>
			<path style="fill:#F6F6F6;" d="M108.284,89.657c-1.254,0-2.257,1.003-2.287,2.287l-1.018,41.228l1.025,19.836
				c0.022,1.262,1.025,2.266,2.279,2.266c1.254,0,2.266-1.004,2.287-2.278v0.015l1.15-19.837l-1.15-41.235
				C110.549,90.661,109.539,89.657,108.284,89.657z"/>
			<path style="fill:#F6F6F6;" d="M117.786,82.082c-0.391-0.258-0.855-0.42-1.35-0.42c-0.487,0-0.944,0.155-1.328,0.398
				c-0.664,0.443-1.114,1.195-1.122,2.051l-0.015,0.465l-0.915,48.583c0,0.028,0.929,19.726,0.929,19.726c0,0.028,0,0.059,0,0.081
				c0.03,0.554,0.236,1.062,0.576,1.462c0.442,0.537,1.121,0.883,1.874,0.883c0.664,0,1.269-0.272,1.711-0.715
				c0.443-0.441,0.723-1.048,0.738-1.726l0.103-1.949l0.93-17.748l-1.033-49.069C118.87,83.269,118.435,82.524,117.786,82.082z"/>
			<polygon style="fill:#F6F6F6;" points="118.885,152.883 118.885,152.875 118.885,152.883 118.885,152.875 118.885,152.869 
				118.885,152.869 118.885,152.875 			"/>
			<path style="fill:#F6F6F6;" d="M125.878,77.434c-0.391-0.243-0.849-0.376-1.335-0.376c-0.62,0-1.195,0.221-1.645,0.598
				c-0.583,0.479-0.959,1.202-0.966,2.006l-0.007,0.273l-1.069,53.245l0.546,9.84l0.531,9.584c0.015,1.416,1.188,2.59,2.611,2.59
				c1.425,0,2.597-1.174,2.619-2.612v0.022l0,0l1.157-19.424l0,0l-1.157-53.518C127.146,78.718,126.63,77.884,125.878,77.434z"/>
			<path style="fill:#F6F6F6;" d="M197.814,107.848c-3.252,0-6.357,0.657-9.19,1.844c-1.89-21.407-19.845-38.204-41.737-38.204
				c-5.363,0-10.586,1.055-15.203,2.84c-1.793,0.693-2.265,1.409-2.287,2.796v75.39c0.022,1.452,1.15,2.588,2.568,2.729
				c0.059,0.008,65.852,0,65.852,0c13.123,0,23.752-10.512,23.752-23.643C221.568,118.485,210.938,107.848,197.814,107.848z"/>
		</g>
		<path style="fill:#F6F6F6;" d="M47.397,169.54c-2.781-0.656-3.533-1.013-3.533-2.108c0-0.775,0.627-1.58,2.508-1.58
			c1.608,0,2.862,0.649,3.991,1.809l2.538-2.465c-1.66-1.727-3.667-2.758-6.403-2.758c-3.459,0-6.27,1.961-6.27,5.147
			c0,3.459,2.257,4.483,5.496,5.235c3.312,0.755,3.91,1.263,3.91,2.392c0,1.328-0.981,1.904-3.062,1.904
			c-1.682,0-3.26-0.576-4.492-2.009l-2.53,2.259c1.328,1.954,3.887,3.188,6.823,3.188c4.788,0,6.905-2.259,6.905-5.593
			C53.276,171.141,50.186,170.188,47.397,169.54z M63.56,162.438c-4.788,0-7.62,3.717-7.62,9.059c0,5.348,2.833,9.059,7.62,9.059
			c4.795,0,7.627-3.711,7.627-9.059C71.187,166.152,68.354,162.438,63.56,162.438z M63.56,177.062c-2.833,0-4.013-2.434-4.013-5.567
			c0-3.138,1.18-5.57,4.013-5.57c2.84,0,4.02,2.435,4.02,5.57C67.58,174.63,66.399,177.062,63.56,177.062z M85.365,172.57
			c0,2.812-1.38,4.545-3.606,4.545c-2.235,0-3.593-1.778-3.593-4.59v-9.811h-3.511v9.855c0,5.127,2.862,7.982,7.104,7.982
			c4.463,0,7.119-2.939,7.119-8.027v-9.812h-3.511L85.365,172.57L85.365,172.57z M104.035,170.145c0,0.975,0.044,3.18,0.044,3.836
			c-0.221-0.449-0.796-1.326-1.225-1.984l-6.226-9.279h-3.363v17.564h3.467v-7.73c0-0.982-0.052-3.188-0.052-3.844
			c0.229,0.457,0.804,1.336,1.225,1.984l6.455,9.59h3.135v-17.564h-3.46V170.145z M117.505,162.716h-5.488v17.563h5.237
			c4.515,0,8.984-2.61,8.984-8.784C126.238,165.068,122.521,162.716,117.505,162.716z M117.254,176.863h-1.733v-10.739h1.866
			c3.71,0,5.245,1.776,5.245,5.371C122.632,174.71,120.943,176.863,117.254,176.863z M137.105,165.925
			c1.578,0,2.582,0.71,3.215,1.904l3.254-1.507c-1.105-2.278-3.105-3.887-6.418-3.887c-4.596,0-7.805,3.717-7.805,9.06
			c0,5.547,3.084,9.06,7.68,9.06c3.188,0,5.289-1.484,6.498-3.97l-2.965-1.756c-0.93,1.558-1.853,2.233-3.438,2.233
			c-2.634,0-4.168-2.412-4.168-5.567C132.959,168.232,134.473,165.925,137.105,165.925z M150.133,162.716h-3.512v17.563h10.562
			v-3.467h-7.051V162.716L150.133,162.716z M166.428,162.438c-4.787,0-7.627,3.717-7.627,9.059c0,5.348,2.84,9.059,7.627,9.059
			c4.795,0,7.635-3.711,7.635-9.059C174.062,166.152,171.223,162.438,166.428,162.438z M166.428,177.062
			c-2.832,0-4.014-2.434-4.014-5.567c0-3.138,1.182-5.57,4.014-5.57c2.84,0,4.014,2.435,4.014,5.57
			C170.439,174.63,169.268,177.062,166.428,177.062z M188.232,172.57c0,2.812-1.371,4.545-3.606,4.545s-3.593-1.778-3.593-4.59
			v-9.811h-3.512v9.855c0,5.127,2.863,7.982,7.104,7.982c4.464,0,7.126-2.939,7.126-8.027v-9.812h-3.52V172.57z M201.637,162.716
			h-5.496v17.563h5.237c4.528,0,8.985-2.61,8.985-8.784C210.363,165.068,206.66,162.716,201.637,162.716z M201.378,176.863h-1.726
			v-10.739h1.857c3.711,0,5.237,1.776,5.237,5.371C206.748,174.71,205.074,176.863,201.378,176.863z"/>
	</g>
</g>
<g>
	<g>
		<g>
			<path style="fill:#666666;" d="M39.375,114.578c-0.413,0-0.752,0.332-0.804,0.79l-1.903,17.342l1.903,16.959
				c0.052,0.45,0.391,0.782,0.804,0.782c0.406,0,0.738-0.324,0.804-0.782l2.154-16.959l-2.154-17.35
				C40.112,114.903,39.78,114.578,39.375,114.578z"/>
			<path style="fill:#666666;" d="M32.234,121.225c-0.406,0-0.723,0.31-0.775,0.752l-1.416,10.733l1.416,10.542
				c0.052,0.441,0.369,0.752,0.775,0.752c0.391,0,0.708-0.311,0.774-0.752l1.667-10.542l-1.667-10.733
				C32.942,121.534,32.625,121.225,32.234,121.225z"/>
			<path style="fill:#666666;" d="M46.958,111.178c-0.509,0-0.915,0.398-0.967,0.951l-1.8,20.581l1.8,19.821
				c0.052,0.554,0.458,0.951,0.967,0.951c0.501,0,0.907-0.397,0.974-0.943l2.043-19.829l-2.043-20.581
				C47.865,111.576,47.459,111.178,46.958,111.178z"/>
			<path style="fill:#666666;" d="M54.607,110.455c-0.598,0-1.084,0.479-1.129,1.114l-1.704,21.142l1.704,20.456
				c0.044,0.634,0.531,1.112,1.129,1.112c0.598,0,1.084-0.479,1.136-1.112l1.934-20.456l-1.934-21.149
				C55.692,110.934,55.205,110.455,54.607,110.455z"/>
			<path style="fill:#666666;" d="M63.614,153.335L63.614,153.335L63.614,153.335z"/>
			<path style="fill:#666666;" d="M63.614,113.088c-0.044-0.723-0.604-1.269-1.291-1.269c-0.701,0-1.254,0.546-1.298,1.284
				l-1.608,19.607l1.608,20.625c0.044,0.729,0.598,1.284,1.298,1.284c0.687,0,1.247-0.555,1.291-1.284l1.83-20.625L63.614,113.088z"
				/>
			<path style="fill:#666666;" d="M70.099,99.36c-0.782,0-1.424,0.634-1.461,1.453l-1.512,31.912l1.512,20.617
				c0.037,0.805,0.679,1.446,1.461,1.446c0.767,0,1.409-0.644,1.46-1.454v0.008l1.704-20.617l-1.704-31.919
				C71.507,99.995,70.866,99.36,70.099,99.36z"/>
			<path style="fill:#666666;" d="M77.814,92.005c-0.878,0-1.593,0.716-1.63,1.616l-1.409,39.215l1.409,20.492
				c0.037,0.893,0.752,1.607,1.63,1.607c0.863,0,1.586-0.715,1.623-1.615v0.008l1.601-20.492l-1.601-39.215
				C79.4,92.721,78.678,92.005,77.814,92.005z"/>
			<path style="fill:#666666;" d="M85.833,88.465c-0.974,0-1.763,0.782-1.792,1.785l-1.321,42.482l1.321,20.277
				c0.029,0.988,0.819,1.771,1.792,1.771c0.959,0,1.748-0.782,1.785-1.777v0.016l1.482-20.287L87.618,90.25
				C87.581,89.247,86.792,88.465,85.833,88.465z"/>
			<path style="fill:#666666;" d="M95.747,88.819c-0.037-1.092-0.893-1.948-1.955-1.948c-1.07,0-1.933,0.856-1.955,1.948
				l-1.224,43.914l1.224,20.16c0.022,1.078,0.885,1.934,1.955,1.934c1.062,0,1.918-0.855,1.955-1.947l1.372-20.146L95.747,88.819z"
				/>
			<polygon style="fill:#666666;" points="95.747,152.878 95.747,152.878 95.747,152.893 			"/>
			<path style="fill:#666666;" d="M101.811,87.83c-1.158,0-2.095,0.93-2.117,2.11l-1.122,42.792l1.122,19.969
				c0.022,1.173,0.959,2.104,2.117,2.104s2.088-0.931,2.125-2.117v0.021l1.254-19.976l-1.254-42.792
				C103.898,88.76,102.969,87.83,101.811,87.83z"/>
			<path style="fill:#666666;" d="M109.896,89.232c-1.254,0-2.257,1.003-2.287,2.279l-1.018,41.227l1.024,19.837
				c0.022,1.262,1.025,2.265,2.279,2.265s2.265-1.003,2.287-2.279v0.016l1.15-19.836l-1.15-41.235
				C112.16,90.235,111.15,89.232,109.896,89.232z"/>
			<path style="fill:#666666;" d="M119.397,81.648c-0.391-0.258-0.856-0.413-1.35-0.413c-0.487,0-0.944,0.147-1.328,0.398
				c-0.664,0.436-1.114,1.188-1.122,2.043l-0.015,0.465l-0.915,48.589c0,0.029,0.929,19.719,0.929,19.719s0,0.059,0,0.08
				c0.03,0.555,0.236,1.062,0.576,1.461c0.442,0.539,1.121,0.895,1.874,0.895c0.664,0,1.269-0.281,1.711-0.724
				s0.723-1.048,0.738-1.72l0.103-1.955l0.93-17.748l-1.033-49.062C120.481,82.836,120.046,82.091,119.397,81.648z"/>
			<polygon style="fill:#666666;" points="120.496,152.45 120.496,152.441 120.496,152.45 120.496,152.441 120.496,152.436 
				120.496,152.441 120.496,152.441 			"/>
			<path style="fill:#666666;" d="M127.488,77.001c-0.391-0.244-0.848-0.376-1.334-0.376c-0.621,0-1.195,0.222-1.645,0.598
				c-0.583,0.479-0.959,1.202-0.966,2.006l-0.007,0.273l-1.068,53.245l0.546,9.841l0.531,9.582c0.015,1.416,1.188,2.59,2.61,2.59
				c1.425,0,2.598-1.174,2.619-2.611v0.021l0,0l1.158-19.423l0,0l-1.158-53.518C128.758,78.285,128.24,77.451,127.488,77.001z"/>
			<path style="fill:#666666;" d="M199.428,107.416c-3.254,0-6.359,0.656-9.191,1.844c-1.889-21.407-19.844-38.197-41.737-38.197
				c-5.362,0-10.586,1.047-15.203,2.833c-1.793,0.693-2.265,1.409-2.286,2.796v75.397c0.021,1.453,1.148,2.582,2.566,2.722
				c0.059,0.008,65.852,0,65.852,0c13.123,0,23.754-10.512,23.754-23.635C223.182,118.053,212.551,107.416,199.428,107.416z"/>
		</g>
		<path style="fill:#666666;" d="M49.008,169.105c-2.781-0.655-3.533-1.01-3.533-2.108c0-0.774,0.627-1.579,2.508-1.579
			c1.608,0,2.862,0.648,3.991,1.809l2.538-2.457c-1.66-1.732-3.667-2.767-6.403-2.767c-3.459,0-6.27,1.962-6.27,5.149
			c0,3.459,2.257,4.492,5.496,5.236c3.312,0.752,3.91,1.262,3.91,2.391c0,1.328-0.981,1.91-3.062,1.91
			c-1.682,0-3.26-0.582-4.492-2.014l-2.53,2.258c1.328,1.955,3.888,3.187,6.823,3.187c4.788,0,6.905-2.25,6.905-5.593
			C54.888,170.707,51.797,169.764,49.008,169.105z M65.171,162.003c-4.788,0-7.62,3.718-7.62,9.06c0,5.349,2.833,9.059,7.62,9.059
			c4.795,0,7.627-3.71,7.627-9.059C72.798,165.721,69.966,162.003,65.171,162.003z M65.171,176.639
			c-2.833,0-4.013-2.441-4.013-5.576s1.18-5.569,4.013-5.569c2.84,0,4.02,2.435,4.02,5.569
			C69.191,174.195,68.011,176.639,65.171,176.639z M86.977,172.146c0,2.803-1.38,4.543-3.607,4.543
			c-2.235,0-3.593-1.785-3.593-4.596v-9.812h-3.511v9.863c0,5.119,2.862,7.975,7.104,7.975c4.463,0,7.119-2.936,7.119-8.025v-9.812
			h-3.511L86.977,172.146L86.977,172.146z M105.646,169.712c0,0.974,0.044,3.187,0.044,3.836c-0.221-0.45-0.796-1.327-1.225-1.983
			l-6.227-9.28h-3.363v17.563h3.467v-7.73c0-0.98-0.052-3.188-0.052-3.836c0.229,0.449,0.804,1.328,1.225,1.984l6.455,9.582h3.135
			v-17.563h-3.46V169.712z M119.117,162.283h-5.488v17.564h5.237c4.516,0,8.986-2.611,8.986-8.787
			C127.852,164.637,124.133,162.283,119.117,162.283z M118.866,176.432h-1.732V165.7h1.866c3.71,0,5.245,1.776,5.245,5.362
			C124.243,174.277,122.554,176.432,118.866,176.432z M138.717,165.492c1.578,0,2.582,0.708,3.217,1.902l3.252-1.496
			c-1.105-2.287-3.104-3.896-6.418-3.896c-4.594,0-7.803,3.719-7.803,9.059c0,5.549,3.082,9.06,7.678,9.06
			c3.188,0,5.289-1.476,6.5-3.97l-2.967-1.756c-0.929,1.558-1.852,2.244-3.438,2.244c-2.633,0-4.168-2.42-4.168-5.578
			C134.57,167.801,136.083,165.492,138.717,165.492z M151.744,162.283h-3.512v17.564h10.562v-3.461h-7.053v-14.104H151.744z
			 M168.039,162.003c-4.788,0-7.629,3.718-7.629,9.06c0,5.349,2.841,9.059,7.629,9.059c4.795,0,7.635-3.71,7.635-9.059
			C175.674,165.721,172.834,162.003,168.039,162.003z M168.039,176.639c-2.833,0-4.014-2.441-4.014-5.576s1.181-5.569,4.014-5.569
			c2.84,0,4.014,2.435,4.014,5.569C172.053,174.195,170.879,176.639,168.039,176.639z M189.846,172.146
			c0,2.803-1.373,4.543-3.607,4.543c-2.235,0-3.594-1.785-3.594-4.596v-9.812h-3.51v9.863c0,5.119,2.861,7.975,7.104,7.975
			c4.463,0,7.125-2.936,7.125-8.025v-9.812h-3.518V172.146z M203.248,162.283h-5.496v17.564h5.236c4.529,0,8.986-2.611,8.986-8.787
			C211.975,164.637,208.271,162.283,203.248,162.283z M202.988,176.432h-1.725V165.7h1.857c3.711,0,5.236,1.776,5.236,5.362
			C208.359,174.277,206.686,176.432,202.988,176.432z"/>
	</g>
</g>
<g style="display:none;">
	<g style="display:inline;">
		<g>
			<path style="fill:#F6F6F6;" d="M37.763,116.885c-0.413,0-0.752,0.332-0.804,0.79l-1.903,17.343l1.903,16.959
				c0.052,0.457,0.391,0.781,0.804,0.781c0.406,0,0.738-0.324,0.804-0.775l2.154-16.965l-2.154-17.351
				C38.501,117.209,38.169,116.885,37.763,116.885z"/>
			<path style="fill:#F6F6F6;" d="M30.623,123.531c-0.406,0-0.723,0.31-0.775,0.76l-1.416,10.727l1.416,10.541
				c0.052,0.441,0.369,0.76,0.775,0.76c0.391,0,0.708-0.317,0.774-0.754l1.667-10.547l-1.667-10.733
				C31.331,123.841,31.014,123.531,30.623,123.531z"/>
			<path style="fill:#F6F6F6;" d="M45.347,113.492c-0.509,0-0.915,0.398-0.967,0.944l-1.8,20.582l1.8,19.828
				c0.052,0.547,0.458,0.944,0.967,0.944c0.501,0,0.907-0.397,0.974-0.944l2.043-19.828l-2.043-20.582
				C46.254,113.882,45.848,113.492,45.347,113.492z"/>
			<path style="fill:#F6F6F6;" d="M52.996,112.761c-0.598,0-1.084,0.479-1.129,1.114l-1.704,21.143l1.704,20.463
				c0.044,0.635,0.531,1.106,1.129,1.106s1.084-0.474,1.136-1.106l1.933-20.463l-1.933-21.143
				C54.081,113.241,53.594,112.761,52.996,112.761z"/>
			<polygon style="fill:#F6F6F6;" points="62.003,155.643 62.003,155.648 62.003,155.648 			"/>
			<path style="fill:#F6F6F6;" d="M62.003,115.402c-0.044-0.723-0.605-1.276-1.291-1.276c-0.701,0-1.254,0.553-1.298,1.284
				l-1.608,19.613l1.608,20.627c0.044,0.723,0.598,1.274,1.298,1.274c0.686,0,1.247-0.553,1.291-1.274l1.83-20.627L62.003,115.402z"
				/>
			<path style="fill:#F6F6F6;" d="M68.487,101.674c-0.782,0-1.424,0.634-1.461,1.446l-1.512,31.911l1.512,20.627
				c0.037,0.803,0.679,1.438,1.461,1.438c0.767,0,1.409-0.635,1.46-1.445v0.009l1.704-20.626l-1.704-31.919
				C69.896,102.308,69.254,101.674,68.487,101.674z"/>
			<path style="fill:#F6F6F6;" d="M76.203,94.319c-0.878,0-1.593,0.708-1.63,1.616l-1.409,39.208l1.409,20.492
				c0.037,0.899,0.752,1.608,1.63,1.608c0.863,0,1.586-0.709,1.623-1.608v0.008l1.602-20.5l-1.602-39.208
				C77.789,95.028,77.066,94.319,76.203,94.319z"/>
			<path style="fill:#F6F6F6;" d="M84.222,90.779c-0.974,0-1.763,0.782-1.792,1.777l-1.321,42.483l1.321,20.286
				c0.029,0.987,0.819,1.771,1.792,1.771c0.959,0,1.748-0.781,1.785-1.785v0.016l1.481-20.286l-1.481-42.483
				C85.97,91.561,85.181,90.779,84.222,90.779z"/>
			<path style="fill:#F6F6F6;" d="M94.136,91.125c-0.037-1.084-0.894-1.948-1.955-1.948c-1.07,0-1.933,0.863-1.955,1.948
				l-1.224,43.914l1.224,20.161c0.022,1.075,0.885,1.932,1.955,1.932c1.062,0,1.918-0.854,1.955-1.938l1.372-20.153L94.136,91.125z"
				/>
			<polygon style="fill:#F6F6F6;" points="94.136,155.186 94.136,155.191 94.136,155.2 			"/>
			<path style="fill:#F6F6F6;" d="M100.199,90.144c-1.158,0-2.095,0.922-2.117,2.11l-1.122,42.785l1.122,19.977
				c0.022,1.166,0.959,2.096,2.117,2.096c1.158,0,2.088-0.93,2.125-2.109v0.014l1.254-19.976l-1.254-42.792
				C102.287,91.066,101.357,90.144,100.199,90.144z"/>
			<path style="fill:#F6F6F6;" d="M108.284,91.539c-1.254,0-2.257,1.003-2.287,2.279l-1.018,41.229l1.025,19.842
				c0.022,1.264,1.025,2.26,2.279,2.26c1.254,0,2.266-0.996,2.287-2.272v0.015l1.15-19.843l-1.15-41.236
				C110.549,92.542,109.539,91.539,108.284,91.539z"/>
			<path style="fill:#F6F6F6;" d="M117.786,83.962c-0.391-0.266-0.855-0.42-1.35-0.42c-0.487,0-0.944,0.147-1.328,0.398
				c-0.664,0.435-1.114,1.188-1.122,2.043l-0.015,0.465l-0.915,48.59c0,0.028,0.929,19.717,0.929,19.717s0,0.062,0,0.091
				c0.03,0.545,0.236,1.053,0.576,1.459c0.442,0.531,1.121,0.885,1.874,0.885c0.664,0,1.269-0.271,1.711-0.715
				c0.443-0.443,0.723-1.055,0.738-1.726l0.103-1.946l0.93-17.75l-1.033-49.07C118.87,85.143,118.435,84.398,117.786,83.962z"/>
			<polygon style="fill:#F6F6F6;" points="118.885,154.764 118.885,154.756 118.885,154.764 118.885,154.75 118.885,154.742 
				118.885,154.75 118.885,154.756 			"/>
			<path style="fill:#F6F6F6;" d="M125.878,79.308c-0.391-0.236-0.849-0.376-1.335-0.376c-0.62,0-1.195,0.229-1.645,0.598
				c-0.583,0.479-0.959,1.202-0.966,2.014l-0.007,0.266l-1.069,53.245l0.546,9.85l0.531,9.574c0.015,1.422,1.188,2.588,2.611,2.588
				c1.425,0,2.597-1.166,2.619-2.609v0.021l0,0l1.157-19.424l0,0l-1.157-53.518C127.146,80.591,126.63,79.765,125.878,79.308z"/>
			<path style="fill:#F6F6F6;" d="M197.814,109.729c-3.252,0-6.357,0.656-9.19,1.844c-1.89-21.407-19.845-38.204-41.737-38.204
				c-5.363,0-10.586,1.047-15.203,2.84c-1.793,0.693-2.265,1.402-2.287,2.789v75.396c0.022,1.453,1.15,2.582,2.568,2.729
				c0.059,0,65.852,0,65.852,0c13.123,0,23.752-10.52,23.752-23.643C221.568,120.359,210.938,109.729,197.814,109.729z"/>
		</g>
		<path style="fill:#F6F6F6;" d="M47.397,171.413c-2.781-0.656-3.533-1.004-3.533-2.108c0-0.775,0.627-1.578,2.508-1.578
			c1.608,0,2.862,0.655,3.991,1.807l2.538-2.457c-1.66-1.727-3.667-2.758-6.403-2.758c-3.459,0-6.27,1.955-6.27,5.141
			c0,3.467,2.257,4.492,5.496,5.246c3.312,0.752,3.91,1.254,3.91,2.381c0,1.336-0.981,1.912-3.062,1.912
			c-1.682,0-3.26-0.576-4.492-2.014l-2.53,2.256c1.328,1.963,3.887,3.188,6.823,3.188c4.788,0,6.905-2.25,6.905-5.592
			C53.276,173.021,50.186,172.068,47.397,171.413z M63.56,164.316c-4.788,0-7.62,3.709-7.62,9.06c0,5.349,2.833,9.052,7.62,9.052
			c4.795,0,7.627-3.703,7.627-9.052C71.187,168.025,68.354,164.316,63.56,164.316z M63.56,178.943c-2.833,0-4.013-2.434-4.013-5.567
			s1.18-5.569,4.013-5.569c2.84,0,4.02,2.436,4.02,5.569S66.399,178.943,63.56,178.943z M85.365,174.452
			c0,2.812-1.38,4.545-3.606,4.545c-2.235,0-3.593-1.785-3.593-4.597v-9.812h-3.511v9.863c0,5.118,2.862,7.976,7.104,7.976
			c4.463,0,7.119-2.937,7.119-8.025v-9.812h-3.511L85.365,174.452L85.365,174.452z M104.035,172.02c0,0.979,0.044,3.186,0.044,3.844
			c-0.221-0.459-0.796-1.336-1.225-1.992l-6.226-9.281h-3.363v17.564h3.467v-7.73c0-0.975-0.052-3.18-0.052-3.836
			c0.229,0.449,0.804,1.328,1.225,1.984l6.455,9.582h3.135V164.59h-3.46V172.02z M117.505,164.589h-5.488v17.563h5.237
			c4.515,0,8.984-2.61,8.984-8.776C126.238,166.95,122.521,164.589,117.505,164.589z M117.254,178.745h-1.733v-10.74h1.866
			c3.71,0,5.245,1.776,5.245,5.371C122.632,176.585,120.943,178.745,117.254,178.745z M137.105,167.807
			c1.578,0,2.582,0.7,3.215,1.903l3.254-1.506c-1.105-2.287-3.105-3.888-6.418-3.888c-4.596,0-7.805,3.709-7.805,9.06
			c0,5.539,3.084,9.052,7.68,9.052c3.188,0,5.289-1.476,6.498-3.962l-2.965-1.756c-0.93,1.558-1.853,2.233-3.438,2.233
			c-2.634,0-4.168-2.412-4.168-5.567C132.959,170.113,134.473,167.807,137.105,167.807z M150.133,164.589h-3.512v17.563h10.562
			v-3.459h-7.051V164.589L150.133,164.589z M166.428,164.316c-4.787,0-7.627,3.709-7.627,9.06c0,5.349,2.84,9.052,7.627,9.052
			c4.795,0,7.635-3.703,7.635-9.052C174.062,168.025,171.223,164.316,166.428,164.316z M166.428,178.943
			c-2.832,0-4.014-2.434-4.014-5.567s1.182-5.569,4.014-5.569c2.84,0,4.014,2.436,4.014,5.569S169.268,178.943,166.428,178.943z
			 M188.232,174.452c0,2.812-1.371,4.545-3.606,4.545s-3.593-1.785-3.593-4.597v-9.812h-3.512v9.863
			c0,5.118,2.863,7.976,7.104,7.976c4.464,0,7.126-2.937,7.126-8.025v-9.812h-3.52V174.452z M201.637,164.589h-5.496v17.563h5.237
			c4.528,0,8.985-2.61,8.985-8.776C210.363,166.95,206.66,164.589,201.637,164.589z M201.378,178.745h-1.726v-10.74h1.857
			c3.711,0,5.237,1.776,5.237,5.371C206.748,176.585,205.074,178.745,201.378,178.745z"/>
	</g>
</g>
</svg>
